<mxfile host="app.diagrams.net" modified="2020-12-29T14:20:37.264Z" agent="5.0 (Windows NT 10.0; Win64; x64) AppleWebKit/537.36 (KHTML, like Gecko) Chrome/87.0.4280.88 Safari/537.36" etag="6c-vA1-gMweuH7o2SYgp" version="14.1.3" type="github">
  <diagram id="ml6yD4MXWTz78irLIN26" name="Page-1">
    <mxGraphModel dx="1422" dy="1874" grid="1" gridSize="10" guides="1" tooltips="1" connect="1" arrows="1" fold="1" page="1" pageScale="1" pageWidth="827" pageHeight="1169" math="0" shadow="0">
      <root>
        <mxCell id="0" />
        <mxCell id="1" parent="0" />
        <mxCell id="eDH6uzZkMYXaJ3Jsk58M-7" value="" style="endArrow=classic;html=1;fontSize=26;exitX=0.5;exitY=1;exitDx=0;exitDy=0;" edge="1" parent="1" source="eDH6uzZkMYXaJ3Jsk58M-6">
          <mxGeometry width="50" height="50" relative="1" as="geometry">
            <mxPoint x="390" y="-680" as="sourcePoint" />
            <mxPoint x="78" y="-580" as="targetPoint" />
          </mxGeometry>
        </mxCell>
        <mxCell id="eDH6uzZkMYXaJ3Jsk58M-3" value="" style="endArrow=none;dashed=1;html=1;" edge="1" parent="1">
          <mxGeometry width="50" height="50" relative="1" as="geometry">
            <mxPoint x="241" y="-800" as="sourcePoint" />
            <mxPoint x="241" y="-1030" as="targetPoint" />
          </mxGeometry>
        </mxCell>
        <mxCell id="eDH6uzZkMYXaJ3Jsk58M-1" value="" style="aspect=fixed;perimeter=ellipsePerimeter;html=1;align=center;shadow=0;dashed=0;spacingTop=3;image;image=img/lib/active_directory/firewall.svg;" vertex="1" parent="1">
          <mxGeometry x="204.6" y="-800" width="105.4" height="172.79" as="geometry" />
        </mxCell>
        <mxCell id="eDH6uzZkMYXaJ3Jsk58M-5" value="&lt;font style=&quot;font-size: 24px&quot;&gt;Clalit LAN&lt;/font&gt;" style="text;html=1;strokeColor=none;fillColor=none;align=center;verticalAlign=middle;whiteSpace=wrap;rounded=0;" vertex="1" parent="1">
          <mxGeometry x="90" y="-980" width="130" height="20" as="geometry" />
        </mxCell>
        <mxCell id="eDH6uzZkMYXaJ3Jsk58M-6" value="Data SSRS" style="aspect=fixed;perimeter=ellipsePerimeter;html=1;align=center;shadow=0;dashed=0;spacingTop=3;image;image=img/lib/active_directory/windows_server_2.svg;strokeWidth=2;fontSize=26;" vertex="1" parent="1">
          <mxGeometry x="30" y="-900" width="96" height="120" as="geometry" />
        </mxCell>
        <mxCell id="eDH6uzZkMYXaJ3Jsk58M-8" value="Step &lt;font style=&quot;font-size: 24px&quot;&gt;1&lt;/font&gt;&lt;br&gt;&lt;font color=&quot;#ff0000&quot;&gt;1 time&lt;/font&gt;&lt;br&gt;Download Vaccine Report to PNG file" style="text;html=1;strokeColor=none;fillColor=none;align=center;verticalAlign=middle;whiteSpace=wrap;rounded=0;" vertex="1" parent="1">
          <mxGeometry x="30" y="-560" width="100" height="20" as="geometry" />
        </mxCell>
        <mxCell id="eDH6uzZkMYXaJ3Jsk58M-9" value="" style="aspect=fixed;perimeter=ellipsePerimeter;html=1;align=center;shadow=0;dashed=0;spacingTop=3;image;image=img/lib/active_directory/web_server.svg;strokeWidth=2;fontSize=26;" vertex="1" parent="1">
          <mxGeometry x="380" y="-606.25" width="150" height="187.5" as="geometry" />
        </mxCell>
        <mxCell id="eDH6uzZkMYXaJ3Jsk58M-10" value="" style="endArrow=classic;html=1;fontSize=26;exitX=1;exitY=0.5;exitDx=0;exitDy=0;" edge="1" parent="1" source="eDH6uzZkMYXaJ3Jsk58M-11" target="eDH6uzZkMYXaJ3Jsk58M-9">
          <mxGeometry width="50" height="50" relative="1" as="geometry">
            <mxPoint x="390" y="-710" as="sourcePoint" />
            <mxPoint x="440" y="-760" as="targetPoint" />
          </mxGeometry>
        </mxCell>
        <mxCell id="eDH6uzZkMYXaJ3Jsk58M-12" value="" style="endArrow=classic;html=1;fontSize=26;exitX=1;exitY=0.5;exitDx=0;exitDy=0;" edge="1" parent="1" source="eDH6uzZkMYXaJ3Jsk58M-8" target="eDH6uzZkMYXaJ3Jsk58M-11">
          <mxGeometry width="50" height="50" relative="1" as="geometry">
            <mxPoint x="98" y="-550" as="sourcePoint" />
            <mxPoint x="390" y="-550" as="targetPoint" />
          </mxGeometry>
        </mxCell>
        <mxCell id="eDH6uzZkMYXaJ3Jsk58M-14" value="" style="endArrow=classic;html=1;fontSize=12;entryX=0.25;entryY=1;entryDx=0;entryDy=0;" edge="1" parent="1">
          <mxGeometry width="50" height="50" relative="1" as="geometry">
            <mxPoint x="382" y="-577" as="sourcePoint" />
            <mxPoint x="339.5" y="-820" as="targetPoint" />
          </mxGeometry>
        </mxCell>
        <mxCell id="eDH6uzZkMYXaJ3Jsk58M-15" value="Step &lt;font style=&quot;font-size: 26px&quot;&gt;2&lt;/font&gt;&lt;br&gt;&lt;font color=&quot;#ff0000&quot;&gt;1 time&lt;/font&gt;&lt;br&gt;Loading PNG file" style="edgeLabel;html=1;align=center;verticalAlign=middle;resizable=0;points=[];fontSize=12;" vertex="1" connectable="0" parent="eDH6uzZkMYXaJ3Jsk58M-14">
          <mxGeometry x="-0.3038" y="-2" relative="1" as="geometry">
            <mxPoint as="offset" />
          </mxGeometry>
        </mxCell>
        <mxCell id="eDH6uzZkMYXaJ3Jsk58M-16" value="" style="endArrow=classic;html=1;fontSize=12;entryX=1;entryY=1;entryDx=0;entryDy=0;" edge="1" parent="1" source="eDH6uzZkMYXaJ3Jsk58M-9" target="eDH6uzZkMYXaJ3Jsk58M-13">
          <mxGeometry width="50" height="50" relative="1" as="geometry">
            <mxPoint x="468" y="-550" as="sourcePoint" />
            <mxPoint x="509.7910447761194" y="-830" as="targetPoint" />
          </mxGeometry>
        </mxCell>
        <mxCell id="eDH6uzZkMYXaJ3Jsk58M-17" value="Step &lt;span style=&quot;font-size: 24px&quot;&gt;3&lt;/span&gt;&lt;br&gt;&lt;font color=&quot;#ff0000&quot;&gt;&amp;nbsp;N times&lt;/font&gt;&lt;br&gt;Calling send message " style="edgeLabel;html=1;align=center;verticalAlign=middle;resizable=0;points=[];fontSize=12;" vertex="1" connectable="0" parent="eDH6uzZkMYXaJ3Jsk58M-16">
          <mxGeometry x="0.172" y="-1" relative="1" as="geometry">
            <mxPoint as="offset" />
          </mxGeometry>
        </mxCell>
        <mxCell id="eDH6uzZkMYXaJ3Jsk58M-13" value="COMMBOX Cloud Service" style="image;html=1;image=img/lib/clip_art/general/Earth_globe_128x128.png;strokeWidth=2;fontSize=12;" vertex="1" parent="1">
          <mxGeometry x="300" y="-1010" width="150" height="190" as="geometry" />
        </mxCell>
        <mxCell id="eDH6uzZkMYXaJ3Jsk58M-18" value="Step &lt;font&gt;&lt;font style=&quot;font-size: 24px&quot;&gt;4&lt;/font&gt;&lt;br&gt;&lt;font color=&quot;#ff0000&quot; style=&quot;font-size: 12px&quot;&gt;N times&lt;/font&gt;&lt;br&gt;sending message + report&lt;br&gt;&amp;nbsp;to whatsapp&lt;br&gt;&lt;/font&gt;" style="endArrow=classic;html=1;fontSize=12;exitX=1.007;exitY=0.411;exitDx=0;exitDy=0;exitPerimeter=0;" edge="1" parent="1" source="eDH6uzZkMYXaJ3Jsk58M-13">
          <mxGeometry width="50" height="50" relative="1" as="geometry">
            <mxPoint x="500" y="-920" as="sourcePoint" />
            <mxPoint x="640" y="-932" as="targetPoint" />
          </mxGeometry>
        </mxCell>
        <mxCell id="eDH6uzZkMYXaJ3Jsk58M-20" value="" style="aspect=fixed;perimeter=ellipsePerimeter;html=1;align=center;shadow=0;dashed=0;spacingTop=3;image;image=img/lib/active_directory/cell_phone.svg;strokeWidth=2;fontSize=12;" vertex="1" parent="1">
          <mxGeometry x="650" y="-960" width="21" height="50" as="geometry" />
        </mxCell>
        <mxCell id="eDH6uzZkMYXaJ3Jsk58M-21" value="" style="aspect=fixed;perimeter=ellipsePerimeter;html=1;align=center;shadow=0;dashed=0;spacingTop=3;image;image=img/lib/active_directory/databases.svg;strokeWidth=2;fontSize=12;" vertex="1" parent="1">
          <mxGeometry x="47.39" y="-510" width="61.22" height="60" as="geometry" />
        </mxCell>
        <mxCell id="eDH6uzZkMYXaJ3Jsk58M-11" value="Step &lt;font style=&quot;font-size: 24px&quot;&gt;2&lt;/font&gt;&lt;br&gt;&lt;font color=&quot;#ff0000&quot;&gt;1 time&lt;br&gt;&lt;/font&gt;Transfer PNG file to DMZ server" style="text;html=1;strokeColor=none;fillColor=none;align=center;verticalAlign=middle;whiteSpace=wrap;rounded=0;fontSize=12;" vertex="1" parent="1">
          <mxGeometry x="230" y="-560" width="80" height="20" as="geometry" />
        </mxCell>
        <mxCell id="eDH6uzZkMYXaJ3Jsk58M-23" value="" style="endArrow=none;dashed=1;html=1;" edge="1" parent="1">
          <mxGeometry width="50" height="50" relative="1" as="geometry">
            <mxPoint x="240" y="-330" as="sourcePoint" />
            <mxPoint x="240" y="-515" as="targetPoint" />
          </mxGeometry>
        </mxCell>
        <mxCell id="eDH6uzZkMYXaJ3Jsk58M-24" value="" style="endArrow=none;dashed=1;html=1;entryX=0.345;entryY=1.001;entryDx=0;entryDy=0;entryPerimeter=0;" edge="1" parent="1">
          <mxGeometry width="50" height="50" relative="1" as="geometry">
            <mxPoint x="241" y="-590" as="sourcePoint" />
            <mxPoint x="240.96299999999997" y="-648.03721" as="targetPoint" />
          </mxGeometry>
        </mxCell>
      </root>
    </mxGraphModel>
  </diagram>
</mxfile>
